<svg width="35" height="30" viewBox="0 0 35 30" fill="none" xmlns="http://www.w3.org/2000/svg">
<path d="M15 28.9999C16.5087 25.1339 16.4712 24.5732 15 21.2631C14.3815 19.8713 13.5264 18.7749 13.5264 17.2105C13.5264 15.2281 14.0739 9.93673 15.7369 9.10522" stroke="#56FBA1" stroke-linecap="round"/>
<path d="M15 23.1054C17.6666 20.3554 19.204 17.0219 20.731 13.6902C22.1036 10.6954 27.6457 10.5791 30.4737 10.5791" stroke="#56FBA1" stroke-linecap="round"/>
<path d="M15 23.1052C19.4696 19.6134 21.8972 17.2925 27.1988 15.7778C28.236 15.4814 31.3767 15.1167 31.7836 14.0994C32.5451 12.1955 32.1349 9.04275 34.1579 8.36841" stroke="#56FBA1" stroke-linecap="round"/>
<path d="M12.0526 12.7894C6.15117 9.41718 3.1066 8.05661 1 1.73682" stroke="#56FBA1" stroke-linecap="round"/>
<path d="M10.5789 11.3158C9.62606 10.058 4.68421 5.97011 4.68421 4.31579C4.68421 2.76929 1.64622 2.29243 1 1" stroke="#56FBA1" stroke-linecap="round"/>
</svg>
